<?xml version="1.0" encoding="UTF-8" standalone="no"?>
<svg width="13px" height="16px" viewBox="0 0 13 16" version="1.1" xmlns="http://www.w3.org/2000/svg" xmlns:xlink="http://www.w3.org/1999/xlink" xmlns:sketch="http://www.bohemiancoding.com/sketch/ns">
    <!-- Generator: Sketch 3.4 (15588) - http://www.bohemiancoding.com/sketch -->
    <title>trashcan</title>
    <desc>Created with Sketch.</desc>
    <defs></defs>
    <g id="Settings" stroke="none" stroke-width="1" fill="none" fill-rule="evenodd" sketch:type="MSPage">
        <g id="Desktop-HD" sketch:type="MSArtboardGroup" transform="translate(-855.000000, -398.000000)" fill="#FF8181">
            <g id="Active" sketch:type="MSLayerGroup" transform="translate(378.000000, 271.000000)">
                <g id="row" transform="translate(0.000000, 120.000000)" sketch:type="MSShapeGroup">
                    <path d="M489,9 L486,9 L486,7.5 C486,7.224 485.775,7 485.5,7 L481.5,7 C481.224,7 481,7.224 481,7.5 L481,9 L478,9 C477.448,9 477,9.447 477,10 L477,11 C477,11.553 477.448,12 478,12 L478,22 C478,22.553 478.448,23 479,23 L488,23 C488.553,23 489,22.553 489,22 L489,12 C489.553,12 490,11.553 490,11 L490,10 C490,9.447 489.553,9 489,9 L489,9 Z M482,8 L485,8 L485,9 L482,9 L482,8 L482,8 Z M488,12.5 L488,13 L488,21.5 C488,21.776 487.775,22 487.5,22 L479.5,22 C479.224,22 479,21.776 479,21.5 L479,13 L479,12.5 L479,12 L479.5,12 L487.5,12 L488,12 L488,12.5 L488,12.5 Z M488.5,11 L488,11 L479,11 L478.5,11 C478.224,11 478,10.776 478,10.5 C478,10.224 478.224,10 478.5,10 L481.5,10 L485.5,10 L488.5,10 C488.775,10 489,10.224 489,10.5 C489,10.776 488.775,11 488.5,11 L488.5,11 Z M481,21 L482,21 L482,14 L481,14 L481,21 L481,21 Z M485,21 L486,21 L486,14 L485,14 L485,21 L485,21 Z M483,21 L484,21 L484,14 L483,14 L483,21 L483,21 Z" id="trashcan"></path>
                </g>
            </g>
        </g>
    </g>
</svg>