<?xml version="1.0" encoding="UTF-8" standalone="no"?>
<svg width="14px" height="11px" viewBox="0 0 14 11" version="1.1" xmlns="http://www.w3.org/2000/svg" xmlns:xlink="http://www.w3.org/1999/xlink" xmlns:sketch="http://www.bohemiancoding.com/sketch/ns">
    <!-- Generator: Sketch 3.4 (15588) - http://www.bohemiancoding.com/sketch -->
    <title>arrow</title>
    <desc>Created with Sketch.</desc>
    <defs></defs>
    <g id="Settings" stroke="none" stroke-width="1" fill="none" fill-rule="evenodd" sketch:type="MSPage">
        <g id="Desktop-HD" sketch:type="MSArtboardGroup" transform="translate(-597.000000, -331.000000)" fill="#000000">
            <g id="Active" sketch:type="MSLayerGroup" transform="translate(378.000000, 271.000000)">
                <g id="new" transform="translate(0.000000, 46.000000)" sketch:type="MSShapeGroup">
                    <path d="M232.855,19.19675 C232.839,19.17575 232.845,19.14675 232.826,19.12875 C232.81,19.11275 232.787,19.11875 232.769,19.10575 C232.761,19.09975 227.314,14.14175 227.314,14.14175 C227.125,13.95275 226.815,13.95275 226.625,14.14175 C226.435,14.33275 226.435,14.64075 226.625,14.83075 L231.197,18.98475 L219.499,18.98475 C219.223,18.98475 219,19.20875 219,19.48375 C219,19.75875 219.223,19.98175 219.499,19.98175 L231.197,19.98175 L226.625,24.13675 C226.435,24.32675 226.435,24.63475 226.625,24.82475 C226.815,25.01475 227.125,25.01475 227.314,24.82475 L232.777,19.85875 C232.808,19.84275 232.82,19.84475 232.825,19.83875 C232.909,19.73175 232.956,19.62675 232.962,19.50675 C232.951,19.35175 232.912,19.26875 232.855,19.19675 Z" id="arrow"></path>
                </g>
            </g>
        </g>
    </g>
</svg>