<svg width="14" height="11" viewBox="0 0 14 11" xmlns="http://www.w3.org/2000/svg"><title>arrow</title><path d="M13.855 5.197c-.016-.02-.01-.05-.03-.068-.015-.017-.038-.01-.056-.024C13.76 5.1 8.313.142 8.313.142c-.19-.19-.5-.19-.69 0-.19.19-.19.5 0 .69l4.573 4.153H.5c-.277 0-.5.224-.5.5 0 .274.223.497.5.497h11.697l-4.572 4.155c-.19.19-.19.498 0 .688.19.19.5.19.69 0l5.462-4.966c.03-.017.043-.015.048-.02.084-.108.13-.213.137-.333-.01-.155-.05-.238-.107-.31z" fill="#000" fill-rule="evenodd"/></svg>