<svg width="13" height="16" viewBox="0 0 13 16" xmlns="http://www.w3.org/2000/svg"><title>trashcan</title><path d="M12 2H9V.5c0-.276-.225-.5-.5-.5h-4c-.276 0-.5.224-.5.5V2H1c-.552 0-1 .447-1 1v1c0 .553.448 1 1 1v10c0 .553.448 1 1 1h9c.553 0 1-.447 1-1V5c.553 0 1-.447 1-1V3c0-.553-.447-1-1-1zM5 1h3v1H5V1zm6 4.5v9c0 .276-.225.5-.5.5h-8c-.276 0-.5-.224-.5-.5V5h9v.5zm.5-1.5h-10c-.276 0-.5-.224-.5-.5s.224-.5.5-.5h10c.275 0 .5.224.5.5s-.225.5-.5.5zM4 14h1V7H4v7zm4 0h1V7H8v7zm-2 0h1V7H6v7z" fill="#FF8181" fill-rule="evenodd"/></svg>