<?xml version="1.0" encoding="UTF-8" standalone="no"?>
<svg width="64px" height="64px" viewBox="0 0 64 64" version="1.1" xmlns="http://www.w3.org/2000/svg" xmlns:xlink="http://www.w3.org/1999/xlink" xmlns:sketch="http://www.bohemiancoding.com/sketch/ns">
    <!-- Generator: Sketch 3.4 (15588) - http://www.bohemiancoding.com/sketch -->
    <title>logo</title>
    <desc>Created with Sketch.</desc>
    <defs></defs>
    <g id="Settings" stroke="none" stroke-width="1" fill="none" fill-rule="evenodd" sketch:type="MSPage">
        <g id="Desktop-HD" sketch:type="MSArtboardGroup" transform="translate(-580.000000, -128.000000)">
            <g id="logo" sketch:type="MSLayerGroup" transform="translate(580.000000, 128.000000)">
                <circle id="Oval-1" fill="#27CA98" sketch:type="MSShapeGroup" cx="32" cy="32" r="32"></circle>
                <path d="M47.4259868,21.6842105 L44.9588816,21.9925987 L38.8939145,48 L33.3223684,48 L27.8330592,28.2425987 L27.7097039,28.2425987 L22.2203947,48 L16.6488487,48 L10.5427632,21.9925987 L8.09621711,21.6842105 L8.09621711,18.0657895 L19.1159539,18.0657895 L19.1159539,21.6842105 L16.3815789,22.1570724 L19.8149671,38.5633224 L19.9383224,38.5838816 L25.5509868,18.0657895 L29.9712171,18.0657895 L35.625,38.5838816 L35.7483553,38.5633224 L39.1611842,22.1570724 L36.4268092,21.6842105 L36.4268092,18.0657895 L47.4259868,18.0657895 L47.4259868,21.6842105 Z" id="W" fill="#FFFFFF" sketch:type="MSShapeGroup"></path>
                <rect id="Rectangle-1" fill="#27CA98" sketch:type="MSShapeGroup" x="35.5" y="15" width="15.5" height="35.5"></rect>
                <path d="M56.8001645,37.4942434 C56.8001645,40.811146 56.0600403,43.4632576 54.5797697,45.4506579 C53.0994992,47.4380582 50.9613627,48.4317434 48.1652961,48.4317434 C46.8632062,48.4317434 45.7324609,48.1610499 44.7730263,47.6196546 C43.8135917,47.0782594 43.0049375,46.2935907 42.3470395,45.265625 L41.9152961,48 L36.734375,48 L36.734375,20.1628289 L33.5476974,19.5460526 L33.5476974,15.9276316 L42.7171053,15.9276316 L42.7171053,28.1192434 C43.3612971,27.2283398 44.1322598,26.5430397 45.0300164,26.0633224 C45.9277731,25.5836051 46.9591499,25.34375 48.1241776,25.34375 C50.9476567,25.34375 53.0994992,26.4093918 54.5797697,28.5407072 C56.0600403,30.6720227 56.8001645,33.5125919 56.8001645,37.0625 L56.8001645,37.4942434 Z M50.8174342,37.0625 C50.8174342,34.896919 50.4987696,33.1802421 49.8614309,31.9124178 C49.2240922,30.6445934 48.1378914,30.0106908 46.6027961,30.0106908 C45.6707738,30.0106908 44.8826787,30.2060013 44.2384868,30.5966283 C43.594295,30.9872552 43.0871729,31.5457749 42.7171053,32.2722039 L42.7171053,41.6677632 C43.0871729,42.3530736 43.5977215,42.8739017 44.2487664,43.2302632 C44.8998114,43.5866246 45.6981861,43.7648026 46.6439145,43.7648026 C48.1927161,43.7648026 49.2754903,43.219989 49.8922697,42.1303454 C50.5090491,41.0407018 50.8174342,39.4953499 50.8174342,37.4942434 L50.8174342,37.0625 Z" id="b" fill="#FFFFFF" sketch:type="MSShapeGroup"></path>
            </g>
        </g>
    </g>
</svg>